<svg width="41" height="40" viewBox="0 0 41 40" fill="none" xmlns="http://www.w3.org/2000/svg">
<rect x="0.5" width="40" height="40" rx="20" fill="white"/>
<g clip-path="url(#clip0_254_677)">
<path d="M14.4272 19.5L13.56 14.5125C13.5216 14.2895 13.544 14.0602 13.6249 13.8489C13.7058 13.6375 13.8422 13.4519 14.0198 13.3116C14.1973 13.1713 14.4094 13.0815 14.6338 13.0516C14.8581 13.0217 15.0863 13.0529 15.2944 13.1419L27.8588 18.5269C28.049 18.6087 28.211 18.7445 28.3249 18.9174C28.4388 19.0904 28.4995 19.2929 28.4995 19.5C28.4995 19.7071 28.4388 19.9096 28.3249 20.0825C28.211 20.2555 28.049 20.3913 27.8588 20.4731L15.2935 25.8581C15.0853 25.9468 14.8571 25.9778 14.6328 25.9477C14.4085 25.9177 14.1965 25.8277 14.019 25.6874C13.8415 25.547 13.7051 25.3614 13.6242 25.1501C13.5432 24.9388 13.5208 24.7096 13.5591 24.4866L14.4272 19.5ZM14.9925 14.5425L15.7313 18.7969H20.2969C20.4834 18.7969 20.6622 18.8709 20.7941 19.0028C20.9259 19.1347 21 19.3135 21 19.5C21 19.6865 20.9259 19.8653 20.7941 19.9972C20.6622 20.129 20.4834 20.2031 20.2969 20.2031H15.7313L14.9925 24.4575L26.5585 19.5L14.9925 14.5425Z" fill="#CFCFCF"/>
</g>
<defs>
<clipPath id="clip0_254_677">
<rect width="15" height="15" fill="white" transform="translate(13.5 12)"/>
</clipPath>
</defs>
</svg>
