<svg width="30" height="30" viewBox="0 0 30 30" fill="none" xmlns="http://www.w3.org/2000/svg">
<rect width="30" height="30" rx="15" fill="#F1F1F1"/>
<path d="M15 7C13.9391 7 12.9217 7.42143 12.1716 8.17157C11.4214 8.92172 11 9.93913 11 11C11 12.0609 11.4214 13.0783 12.1716 13.8284C12.9217 14.5786 13.9391 15 15 15C16.0609 15 17.0783 14.5786 17.8284 13.8284C18.5786 13.0783 19 12.0609 19 11C19 9.93913 18.5786 8.92172 17.8284 8.17157C17.0783 7.42143 16.0609 7 15 7ZM10.009 16C9.74564 15.9989 9.48466 16.0499 9.24102 16.1499C8.99739 16.2499 8.7759 16.3971 8.58926 16.5829C8.40261 16.7687 8.25448 16.9895 8.15337 17.2327C8.05225 17.4759 8.00013 17.7366 8 18C8 19.691 8.833 20.966 10.135 21.797C11.417 22.614 13.145 23 15 23C16.855 23 18.583 22.614 19.865 21.797C21.167 20.967 22 19.69 22 18C22 17.4696 21.7893 16.9609 21.4142 16.5858C21.0391 16.2107 20.5304 16 20 16H10.009Z" fill="#E4E4E4"/>
</svg>
